<mxfile modified="2022-05-04T04:59:01.028Z" host="app.diagrams.net" agent="5.0 (Windows NT 10.0; Win64; x64) AppleWebKit/537.36 (KHTML, like Gecko) Chrome/100.0.4896.127 Safari/537.36 Edg/100.0.1185.50" etag="8joapS8hxqpP63tR3x3d" compressed="false" version="17.5.0" type="google">
  <diagram id="jFgjgxP6YZ9fNfWB0NQh" name="Group Role Invitation">
    <mxGraphModel grid="1" page="1" gridSize="10" guides="1" tooltips="1" connect="1" arrows="1" fold="1" pageScale="1" pageWidth="827" pageHeight="1169" math="0" shadow="0">
      <root>
        <mxCell id="LaBqxGqGAus-OJt7NFlU-0" />
        <mxCell id="LaBqxGqGAus-OJt7NFlU-1" parent="LaBqxGqGAus-OJt7NFlU-0" />
        <mxCell id="LaBqxGqGAus-OJt7NFlU-6" style="edgeStyle=orthogonalEdgeStyle;rounded=0;orthogonalLoop=1;jettySize=auto;html=1;entryX=0.5;entryY=0;entryDx=0;entryDy=0;" edge="1" parent="LaBqxGqGAus-OJt7NFlU-1" source="LaBqxGqGAus-OJt7NFlU-3" target="LaBqxGqGAus-OJt7NFlU-5">
          <mxGeometry relative="1" as="geometry" />
        </mxCell>
        <mxCell id="LaBqxGqGAus-OJt7NFlU-3" value="Start" style="rounded=0;whiteSpace=wrap;html=1;" vertex="1" parent="LaBqxGqGAus-OJt7NFlU-1">
          <mxGeometry x="120" y="90" width="80" height="20" as="geometry" />
        </mxCell>
        <mxCell id="LaBqxGqGAus-OJt7NFlU-10" style="edgeStyle=orthogonalEdgeStyle;rounded=0;orthogonalLoop=1;jettySize=auto;html=1;entryX=0.5;entryY=0;entryDx=0;entryDy=0;" edge="1" parent="LaBqxGqGAus-OJt7NFlU-1" source="LaBqxGqGAus-OJt7NFlU-4" target="LaBqxGqGAus-OJt7NFlU-8">
          <mxGeometry relative="1" as="geometry" />
        </mxCell>
        <mxCell id="LaBqxGqGAus-OJt7NFlU-4" value="Specifies Role in Group" style="rounded=0;whiteSpace=wrap;html=1;" vertex="1" parent="LaBqxGqGAus-OJt7NFlU-1">
          <mxGeometry x="240" y="180" width="80" height="40" as="geometry" />
        </mxCell>
        <mxCell id="LaBqxGqGAus-OJt7NFlU-7" style="edgeStyle=orthogonalEdgeStyle;rounded=0;orthogonalLoop=1;jettySize=auto;html=1;entryX=0.5;entryY=0;entryDx=0;entryDy=0;" edge="1" parent="LaBqxGqGAus-OJt7NFlU-1" source="LaBqxGqGAus-OJt7NFlU-5" target="LaBqxGqGAus-OJt7NFlU-4">
          <mxGeometry relative="1" as="geometry" />
        </mxCell>
        <mxCell id="LaBqxGqGAus-OJt7NFlU-5" value="Specifies Group" style="rounded=0;whiteSpace=wrap;html=1;" vertex="1" parent="LaBqxGqGAus-OJt7NFlU-1">
          <mxGeometry x="240" y="120" width="80" height="40" as="geometry" />
        </mxCell>
        <mxCell id="LaBqxGqGAus-OJt7NFlU-12" style="edgeStyle=orthogonalEdgeStyle;rounded=0;orthogonalLoop=1;jettySize=auto;html=1;entryX=0.5;entryY=0;entryDx=0;entryDy=0;" edge="1" parent="LaBqxGqGAus-OJt7NFlU-1" source="LaBqxGqGAus-OJt7NFlU-8" target="LaBqxGqGAus-OJt7NFlU-11">
          <mxGeometry relative="1" as="geometry" />
        </mxCell>
        <mxCell id="LaBqxGqGAus-OJt7NFlU-8" value="Excludes Permissions" style="rounded=0;whiteSpace=wrap;html=1;" vertex="1" parent="LaBqxGqGAus-OJt7NFlU-1">
          <mxGeometry x="240" y="240" width="80" height="40" as="geometry" />
        </mxCell>
        <mxCell id="LaBqxGqGAus-OJt7NFlU-14" style="edgeStyle=orthogonalEdgeStyle;rounded=0;orthogonalLoop=1;jettySize=auto;html=1;entryX=0.5;entryY=0;entryDx=0;entryDy=0;" edge="1" parent="LaBqxGqGAus-OJt7NFlU-1" source="LaBqxGqGAus-OJt7NFlU-11" target="LaBqxGqGAus-OJt7NFlU-33">
          <mxGeometry relative="1" as="geometry" />
        </mxCell>
        <mxCell id="LaBqxGqGAus-OJt7NFlU-11" value="Adds Permissions" style="rounded=0;whiteSpace=wrap;html=1;" vertex="1" parent="LaBqxGqGAus-OJt7NFlU-1">
          <mxGeometry x="240" y="300" width="80" height="40" as="geometry" />
        </mxCell>
        <mxCell id="LaBqxGqGAus-OJt7NFlU-16" style="edgeStyle=orthogonalEdgeStyle;rounded=0;orthogonalLoop=1;jettySize=auto;html=1;entryX=0.5;entryY=0;entryDx=0;entryDy=0;exitX=0.5;exitY=1;exitDx=0;exitDy=0;" edge="1" parent="LaBqxGqGAus-OJt7NFlU-1" source="LaBqxGqGAus-OJt7NFlU-23" target="LaBqxGqGAus-OJt7NFlU-15">
          <mxGeometry relative="1" as="geometry" />
        </mxCell>
        <mxCell id="LaBqxGqGAus-OJt7NFlU-25" style="edgeStyle=orthogonalEdgeStyle;rounded=0;orthogonalLoop=1;jettySize=auto;html=1;entryX=0.5;entryY=0;entryDx=0;entryDy=0;" edge="1" parent="LaBqxGqGAus-OJt7NFlU-1" source="LaBqxGqGAus-OJt7NFlU-13" target="LaBqxGqGAus-OJt7NFlU-23">
          <mxGeometry relative="1" as="geometry" />
        </mxCell>
        <mxCell id="LaBqxGqGAus-OJt7NFlU-13" value="Develops&lt;br&gt;Terms &amp;amp; Conditions" style="rounded=0;whiteSpace=wrap;html=1;" vertex="1" parent="LaBqxGqGAus-OJt7NFlU-1">
          <mxGeometry x="240" y="460" width="80" height="40" as="geometry" />
        </mxCell>
        <mxCell id="LaBqxGqGAus-OJt7NFlU-15" value="Develops Notification" style="rounded=0;whiteSpace=wrap;html=1;" vertex="1" parent="LaBqxGqGAus-OJt7NFlU-1">
          <mxGeometry x="560" y="580" width="80" height="40" as="geometry" />
        </mxCell>
        <mxCell id="LaBqxGqGAus-OJt7NFlU-17" value="Receives Email" style="rounded=0;whiteSpace=wrap;html=1;" vertex="1" parent="LaBqxGqGAus-OJt7NFlU-1">
          <mxGeometry x="440" y="800" width="80" height="40" as="geometry" />
        </mxCell>
        <mxCell id="LaBqxGqGAus-OJt7NFlU-18" value="Redirecred to Internal Notification" style="rounded=0;whiteSpace=wrap;html=1;" vertex="1" parent="LaBqxGqGAus-OJt7NFlU-1">
          <mxGeometry x="440" y="861" width="80" height="40" as="geometry" />
        </mxCell>
        <mxCell id="LaBqxGqGAus-OJt7NFlU-19" value="Sends External Email to Internal Notification" style="rounded=0;whiteSpace=wrap;html=1;" vertex="1" parent="LaBqxGqGAus-OJt7NFlU-1">
          <mxGeometry x="560" y="740" width="80" height="40" as="geometry" />
        </mxCell>
        <mxCell id="LaBqxGqGAus-OJt7NFlU-20" value="Redirects to Terms &amp;amp; Conditions" style="rounded=0;whiteSpace=wrap;html=1;" vertex="1" parent="LaBqxGqGAus-OJt7NFlU-1">
          <mxGeometry x="440" y="920" width="80" height="40" as="geometry" />
        </mxCell>
        <mxCell id="LaBqxGqGAus-OJt7NFlU-21" value="Save Acceptance&lt;br&gt;Associated to T&amp;amp;Cs" style="rounded=0;whiteSpace=wrap;html=1;" vertex="1" parent="LaBqxGqGAus-OJt7NFlU-1">
          <mxGeometry x="560" y="980" width="80" height="40" as="geometry" />
        </mxCell>
        <mxCell id="LaBqxGqGAus-OJt7NFlU-22" value="Roles &amp;amp; Permissions are Associated to user" style="rounded=0;whiteSpace=wrap;html=1;" vertex="1" parent="LaBqxGqGAus-OJt7NFlU-1">
          <mxGeometry x="560" y="1060" width="80" height="40" as="geometry" />
        </mxCell>
        <mxCell id="LaBqxGqGAus-OJt7NFlU-23" value="Reviews Terms &amp;amp; Conditions" style="rounded=0;whiteSpace=wrap;html=1;" vertex="1" parent="LaBqxGqGAus-OJt7NFlU-1">
          <mxGeometry x="240" y="520" width="80" height="40" as="geometry" />
        </mxCell>
        <mxCell id="LaBqxGqGAus-OJt7NFlU-34" style="edgeStyle=orthogonalEdgeStyle;rounded=0;orthogonalLoop=1;jettySize=auto;html=1;entryX=0.5;entryY=0;entryDx=0;entryDy=0;" edge="1" parent="LaBqxGqGAus-OJt7NFlU-1" source="LaBqxGqGAus-OJt7NFlU-33" target="LaBqxGqGAus-OJt7NFlU-13">
          <mxGeometry relative="1" as="geometry" />
        </mxCell>
        <mxCell id="LaBqxGqGAus-OJt7NFlU-33" value="Defines Start &amp;amp; End Date" style="rounded=0;whiteSpace=wrap;html=1;" vertex="1" parent="LaBqxGqGAus-OJt7NFlU-1">
          <mxGeometry x="240" y="400" width="80" height="40" as="geometry" />
        </mxCell>
        <mxCell id="LaBqxGqGAus-OJt7NFlU-35" value="Select Remuneration" style="rounded=0;whiteSpace=wrap;html=1;" vertex="1" parent="LaBqxGqGAus-OJt7NFlU-1">
          <mxGeometry x="70" y="420" width="80" height="40" as="geometry" />
        </mxCell>
        <mxCell id="LaBqxGqGAus-OJt7NFlU-36" value="Accepts Terms &amp;amp; Conditions" style="rounded=0;whiteSpace=wrap;html=1;" vertex="1" parent="LaBqxGqGAus-OJt7NFlU-1">
          <mxGeometry x="450" y="990" width="80" height="40" as="geometry" />
        </mxCell>
        <mxCell id="LaBqxGqGAus-OJt7NFlU-37" value="Review Invitation" style="rounded=0;whiteSpace=wrap;html=1;" vertex="1" parent="LaBqxGqGAus-OJt7NFlU-1">
          <mxGeometry x="340" y="630" width="80" height="40" as="geometry" />
        </mxCell>
        <mxCell id="LaBqxGqGAus-OJt7NFlU-38" value="Approve Invitation" style="rounded=0;whiteSpace=wrap;html=1;" vertex="1" parent="LaBqxGqGAus-OJt7NFlU-1">
          <mxGeometry x="340" y="680" width="80" height="40" as="geometry" />
        </mxCell>
      </root>
    </mxGraphModel>
  </diagram>
</mxfile>
